<?xml version="1.0" standalone="no"?>
<!DOCTYPE svg PUBLIC "-//W3C//DTD SVG 20010904//EN"
 "http://www.w3.org/TR/2001/REC-SVG-20010904/DTD/svg10.dtd">
<svg version="1.0" xmlns="http://www.w3.org/2000/svg"
 width="512.000000pt" height="512.000000pt" viewBox="0 0 512.000000 512.000000"
 preserveAspectRatio="xMidYMid meet">
<metadata>
Created by potrace 1.14, written by Peter Selinger 2001-2017
</metadata>
<g transform="translate(0.000000,512.000000) scale(0.100000,-0.100000)"
fill="#000000" stroke="none">
<path d="M2500 3300 c0 -16 2 -30 4 -30 2 0 6 14 8 30 3 17 1 30 -4 30 -4 0
-8 -13 -8 -30z"/>
<path d="M2348 3274 c6 -11 18 -28 27 -39 15 -19 15 -18 1 12 -9 17 -21 35
-27 39 -8 4 -8 1 -1 -12z"/>
<path d="M2643 3263 c-9 -16 -22 -35 -27 -43 -9 -12 -8 -13 4 -3 17 13 54 73
46 73 -3 0 -13 -12 -23 -27z"/>
<path d="M1864 3233 c4 -25 2 -33 -9 -33 -8 0 -15 5 -15 11 0 7 -9 0 -20 -14
-11 -14 -20 -37 -20 -51 0 -14 -6 -26 -12 -26 -7 0 -21 -6 -30 -14 -21 -15
-13 -56 11 -57 12 0 11 -4 -6 -16 -13 -8 -23 -23 -23 -33 0 -9 -9 -25 -20 -35
-11 -10 -20 -14 -20 -9 0 5 -12 9 -28 10 l-27 1 28 -11 c21 -8 27 -15 23 -31
-5 -18 -4 -19 8 -3 7 10 17 14 21 10 5 -4 5 -1 0 7 -5 9 -4 12 4 10 7 -3 12
-9 12 -14 0 -15 30 -45 45 -45 19 0 27 -36 13 -62 -6 -13 -21 -33 -33 -46 -21
-24 -21 -24 -1 -38 16 -12 17 -16 6 -23 -7 -5 -10 -14 -7 -20 5 -7 14 -5 27 8
18 16 19 22 8 39 -17 27 -5 39 16 18 9 -9 21 -16 26 -16 6 0 6 -7 -1 -19 -13
-26 -14 -24 23 -51 30 -22 31 -22 13 -2 -16 18 -17 26 -8 47 10 22 9 28 -8 42
-22 19 -26 53 -9 70 11 11 1 116 -11 108 -12 -8 -32 51 -27 81 4 27 4 26 6 -6
1 -19 5 -42 10 -49 8 -12 13 -11 28 8 20 24 59 34 80 19 8 -7 10 -3 6 12 -3
11 -10 23 -16 27 -6 3 -7 1 -3 -5 4 -7 4 -12 -1 -13 -4 0 -19 -2 -32 -5 -20
-4 -22 -2 -11 11 10 12 10 19 2 27 -21 21 -14 41 13 36 23 -5 25 -2 25 33 0
33 4 40 39 60 56 31 46 53 -27 57 -31 2 -61 9 -65 15 -5 7 -6 -1 -3 -20z m70
-34 c-7 -11 -34 -12 -34 -1 0 14 11 21 26 15 8 -3 11 -9 8 -14z m-64 -39 c-8
-5 -19 -10 -25 -10 -5 0 -3 5 5 10 8 5 20 10 25 10 6 0 3 -5 -5 -10z m20 -20
c-8 -6 -22 -10 -30 -10 -8 0 -4 6 10 13 27 15 44 12 20 -3z m9 -24 c-2 -2 -15
-7 -29 -10 l-25 -7 25 15 c21 12 42 14 29 2z m-104 -32 c0 -11 -8 -20 -20 -22
-16 -3 -17 -1 -5 7 13 9 12 11 -3 11 -15 0 -16 2 -5 15 17 19 33 13 33 -11z
m24 -147 c11 -19 21 -38 21 -43 0 -5 -14 14 -30 41 -16 28 -29 61 -29 75 1 22
2 21 9 -6 4 -18 17 -47 29 -67z m-17 -24 c6 -7 8 -13 4 -13 -10 0 -46 63 -46
80 1 8 7 0 16 -19 8 -19 19 -41 26 -48z m15 -115 c-3 -8 -6 -5 -6 6 -1 11 2
17 5 13 3 -3 4 -12 1 -19z"/>
<path d="M2556 3245 c-9 -26 -7 -32 5 -12 6 10 9 21 6 23 -2 3 -7 -2 -11 -11z"/>
<path d="M3234 3221 c6 -8 1 -10 -16 -6 -20 5 -34 -5 -86 -65 -42 -48 -62 -80
-62 -97 0 -15 -7 -34 -16 -44 -19 -21 -12 -51 11 -43 10 4 13 14 9 30 -5 18
-2 24 11 24 9 0 13 -4 10 -10 -3 -5 -1 -10 5 -10 7 0 9 7 6 16 -5 12 -2 15 12
12 15 -4 18 0 16 21 -2 14 -1 18 2 9 3 -10 9 -18 14 -18 11 0 0 32 -14 43 -6
4 3 5 19 1 17 -4 35 -11 40 -17 7 -7 4 -8 -7 -4 -10 4 -18 2 -18 -3 0 -6 15
-10 34 -10 29 0 33 3 29 20 -3 11 0 20 6 20 6 0 11 -7 11 -15 0 -23 25 -18 60
11 23 19 29 32 25 48 -6 21 -6 21 11 1 16 -20 16 -19 10 5 -6 23 -6 23 7 8 7
-10 34 -20 58 -24 50 -8 79 -28 79 -57 0 -17 -2 -18 -17 -6 -16 13 -17 12 -4
-4 11 -14 12 -23 2 -43 -6 -14 -11 -33 -10 -42 0 -9 6 -1 12 18 10 28 17 34
35 32 25 -4 29 10 7 28 -8 7 -15 20 -14 29 0 10 2 12 6 3 2 -6 10 -9 15 -6 7
4 8 2 4 -5 -4 -6 -2 -18 4 -26 8 -9 10 -28 6 -50 -4 -21 -2 -50 6 -71 10 -29
10 -38 -5 -63 -14 -23 -15 -34 -6 -61 8 -22 8 -35 1 -42 -8 -8 -9 -4 -6 13 5
19 3 21 -5 9 -5 -8 -13 -11 -17 -7 -4 3 -2 13 5 20 6 8 9 22 5 30 -3 9 1 26
10 39 9 12 16 31 16 42 0 20 0 20 -15 0 -8 -10 -15 -14 -15 -8 0 6 3 14 7 18
12 11 9 96 -2 96 -7 0 -12 -28 -13 -72 -1 -70 -24 -226 -39 -263 -4 -13 -3
-16 5 -11 7 4 13 19 13 34 2 24 2 24 6 5 2 -13 9 -23 14 -23 6 0 7 5 4 10 -3
6 -2 10 4 10 5 0 11 -5 13 -11 2 -7 13 -9 25 -5 18 6 19 11 12 49 -4 23 -5 44
-3 46 2 2 4 -1 4 -7 0 -7 3 -12 8 -12 4 0 7 35 6 77 l-1 78 4 -72 c3 -56 7
-73 19 -73 8 0 18 -8 21 -17 4 -10 12 -22 20 -26 7 -4 13 -17 13 -27 0 -29 65
-29 73 0 3 11 13 20 22 20 9 0 13 5 10 11 -4 6 -13 8 -21 5 -8 -3 -14 -1 -14
4 0 6 8 10 18 10 13 0 18 8 17 30 0 17 -4 30 -8 30 -5 0 -5 6 0 13 9 15 5 109
-6 120 -4 4 -21 9 -36 10 -16 1 -30 8 -33 15 -4 14 24 17 32 3 3 -5 15 -11 26
-14 17 -4 19 -1 15 21 -3 15 -7 41 -10 57 -3 17 -13 35 -21 41 -13 10 -13 12
2 18 22 8 24 8 24 -9 0 -9 6 -12 18 -9 13 4 14 3 4 -4 -11 -8 -11 -33 -1 -146
7 -75 16 -136 19 -136 4 0 13 11 20 25 11 21 11 32 2 60 -7 18 -10 45 -6 60
l6 26 13 -23 c13 -26 9 -41 -5 -18 -8 12 -10 10 -10 -8 0 -15 4 -21 12 -16 7
4 8 3 4 -4 -4 -6 -1 -20 5 -30 10 -16 8 -24 -11 -50 -13 -18 -27 -32 -32 -32
-4 0 -8 -13 -8 -28 0 -16 -9 -39 -20 -52 -11 -13 -17 -26 -14 -29 4 -3 9 0 11
7 7 18 23 15 24 -5 0 -11 3 -13 6 -5 7 18 23 15 24 -5 0 -11 3 -13 6 -5 7 18
21 15 26 -5 4 -20 15 61 20 155 2 34 0 62 -5 62 -4 0 -8 5 -8 11 0 8 5 7 15
-1 9 -7 14 -18 12 -24 -5 -11 11 -30 28 -33 6 -1 18 -5 28 -8 12 -5 17 -2 17
9 0 19 -36 40 -52 30 -6 -4 -8 -3 -5 3 4 6 -4 18 -18 27 -19 12 -25 25 -25 52
0 19 -4 33 -8 30 -5 -3 -8 17 -8 44 0 27 3 47 8 44 4 -3 8 -2 8 1 0 13 -134
67 -138 56 -2 -6 -11 -11 -19 -11 -9 0 -13 6 -10 14 5 11 -8 18 -48 26 -58 12
-80 7 -71 -17 3 -8 1 -11 -4 -8 -6 3 -10 12 -10 19 0 8 -16 16 -37 20 -59 9
-66 8 -59 -11 4 -11 -2 -8 -14 7 -16 20 -19 21 -13 5 6 -18 5 -18 -10 -6 -9 7
-17 19 -17 27 0 15 -38 44 -57 44 -7 0 -13 -4 -13 -10 0 -5 7 -10 15 -10 8 0
15 -7 15 -15 0 -24 -29 -17 -42 10 -6 14 -18 25 -27 25 -9 0 -27 3 -40 7 -17
4 -22 3 -17 -6z m-19 -21 c3 -5 -1 -10 -9 -10 -9 0 -16 5 -16 10 0 6 4 10 9
10 6 0 13 -4 16 -10z m65 -10 c0 -15 -7 -20 -25 -20 -24 0 -34 18 -18 33 15
15 43 7 43 -13z m105 0 c3 -5 1 -10 -4 -10 -6 0 -11 5 -11 10 0 6 2 10 4 10 3
0 8 -4 11 -10z m-195 -14 c0 -11 -19 -15 -25 -6 -3 5 1 10 9 10 9 0 16 -2 16
-4z m126 -7 c4 -7 -4 -20 -17 -30 -27 -21 -39 -24 -39 -9 0 6 7 10 16 10 8 0
12 5 9 10 -7 12 2 30 15 30 5 0 12 -5 16 -11z m-82 -14 c19 -14 19 -15 -7 -15
-17 0 -27 5 -27 15 0 19 9 19 34 0z m161 4 c11 -17 -1 -21 -15 -4 -8 9 -8 15
-2 15 6 0 14 -5 17 -11z m-175 -87 c-1 -15 -2 -15 -15 2 -8 11 -15 23 -15 28
0 4 -7 8 -15 8 -8 0 -15 4 -15 9 0 5 -3 17 -7 26 -3 10 10 1 30 -19 21 -20 37
-44 37 -54z m110 51 c0 -10 -51 -53 -62 -53 -4 0 -8 8 -8 18 0 14 2 15 10 2 8
-13 10 -12 10 3 0 10 4 16 9 13 5 -3 11 1 15 9 5 15 26 21 26 8z m315 -2 c7
-12 -12 -24 -25 -16 -11 7 -4 25 10 25 5 0 11 -4 15 -9z m-395 -11 c0 -5 -4
-10 -10 -10 -5 0 -10 5 -10 10 0 6 5 10 10 10 6 0 10 -4 10 -10z m323 -52 c-2
-4 4 -5 14 -2 15 5 16 4 3 -5 -24 -17 -30 -13 -29 22 0 26 2 28 8 12 5 -11 7
-23 4 -27z m22 22 c3 -5 1 -10 -4 -10 -6 0 -11 5 -11 10 0 6 2 10 4 10 3 0 8
-4 11 -10z m80 0 c9 14 28 1 21 -16 -3 -9 1 -11 12 -8 13 5 13 2 -3 -11 l-20
-17 20 4 c12 2 20 -3 20 -12 0 -8 3 -20 7 -25 5 -7 -18 -11 -68 -11 -59 0 -74
3 -69 14 3 7 5 20 5 28 0 11 6 13 23 9 22 -7 22 -7 2 10 -17 14 -18 16 -2 11
11 -3 16 -2 12 4 -10 17 5 32 20 20 9 -8 15 -8 20 0z m-575 -40 c0 -5 -5 -10
-11 -10 -5 0 -7 5 -4 10 3 6 8 10 11 10 2 0 4 -4 4 -10z m693 -17 c-5 -12 -3
-14 7 -8 8 5 11 4 6 -3 -3 -6 -2 -13 4 -17 5 -3 10 -11 10 -17 0 -6 -9 1 -20
15 -22 27 -26 47 -10 47 5 0 6 -7 3 -17z m-132 -53 c23 -13 25 -30 4 -30 -8 0
-15 5 -15 11 0 5 -4 7 -10 4 -13 -8 -32 4 -25 16 8 12 22 11 46 -1z m-62 -14
c9 -10 8 -15 -3 -19 -16 -7 -26 1 -26 20 0 17 14 17 29 -1z m51 -36 c0 -5 -4
-10 -10 -10 -5 0 -10 5 -10 10 0 6 5 10 10 10 6 0 10 -4 10 -10z m30 0 c0 -5
-4 -10 -10 -10 -5 0 -10 5 -10 10 0 6 5 10 10 10 6 0 10 -4 10 -10z m30 0 c0
-5 -4 -10 -10 -10 -5 0 -10 5 -10 10 0 6 5 10 10 10 6 0 10 -4 10 -10z m-26
-51 c3 0 19 -2 36 -5 33 -7 43 -43 13 -45 -17 -1 -17 -2 0 -6 27 -7 20 -20
-13 -20 -26 0 -28 3 -18 16 8 10 4 8 -10 -3 -12 -11 -22 -24 -22 -30 0 -6 4
-5 9 3 6 9 9 5 9 -13 0 -33 -14 -34 -22 -1 -4 14 -11 23 -16 20 -6 -3 -10 -1
-10 5 0 7 -9 9 -22 5 -23 -7 -23 -7 -3 9 16 13 17 15 3 10 -10 -3 -18 -1 -18
5 0 6 6 11 14 11 8 0 17 11 20 25 4 14 11 23 16 20 6 -3 10 0 10 7 0 10 2 10
9 0 4 -8 11 -13 15 -13z m126 -25 c0 -8 -5 -12 -10 -9 -6 4 -8 11 -5 16 9 14
15 11 15 -7z m-240 -15 c0 -5 -4 -9 -10 -9 -5 0 -10 7 -10 16 0 8 5 12 10 9 6
-3 10 -10 10 -16z m187 -55 c-3 -3 -12 -4 -19 -1 -8 3 -5 6 6 6 11 1 17 -2 13
-5z m59 -61 c-6 -16 -26 -18 -26 -2 0 5 5 7 11 3 8 -4 9 4 5 27 -5 30 -5 31 4
10 6 -14 8 -31 6 -38z m-109 28 c-3 -12 1 -21 9 -23 9 -2 11 -7 4 -18 -9 -13
-11 -13 -20 0 -6 10 -10 11 -10 3 0 -20 -17 -15 -23 7 -3 10 -2 19 2 18 20 -2
31 4 31 17 0 8 3 15 6 15 4 0 4 -9 1 -19z m-151 -48 c-4 -4 -11 -1 -16 7 -16
25 -11 35 7 17 9 -9 13 -20 9 -24z"/>
<path d="M1385 3203 c-4 -12 1 -24 17 -36 12 -11 23 -24 24 -31 3 -31 5 -36
15 -36 8 0 7 5 -1 15 -7 9 -10 18 -7 21 5 5 33 -38 28 -44 -1 -1 3 -10 8 -20
9 -15 10 -14 11 8 0 19 3 21 12 12 17 -17 33 -15 18 3 -7 8 -17 15 -22 15 -5
0 -23 12 -38 28 -16 15 -36 33 -45 40 -8 7 -13 17 -10 22 3 5 52 -15 109 -45
56 -30 107 -55 112 -55 5 0 -28 20 -74 45 -45 24 -92 51 -104 60 -29 20 -44
19 -53 -2z"/>
<path d="M2320 3192 c0 -4 10 -13 23 -21 22 -14 22 -14 3 8 -20 22 -26 25 -26
13z"/>
<path d="M2444 3186 c-17 -8 -43 -27 -58 -42 l-27 -29 -50 28 -51 28 -45 -47
c-50 -54 -56 -96 -15 -102 19 -3 22 -10 22 -43 0 -30 -3 -38 -12 -33 -10 6
-10 5 -2 -7 7 -8 12 -34 12 -59 l0 -45 -23 53 c-22 48 -43 74 -28 35 6 -16 5
-17 -13 -3 -18 14 -18 14 -5 -2 7 -10 18 -15 23 -12 5 3 8 0 7 -7 -1 -8 7 -34
19 -59 26 -54 29 -95 7 -86 -8 3 -15 1 -15 -4 0 -6 -5 -10 -11 -10 -5 0 -7 5
-3 12 4 6 3 8 -4 4 -5 -3 -13 0 -16 6 -3 7 -3 0 -1 -16 4 -28 4 -28 -16 -10
-15 13 -16 19 -7 26 9 5 4 8 -14 8 l-26 0 31 -32 c21 -21 28 -33 19 -36 -10
-3 -10 -7 -1 -18 16 -19 32 -18 63 7 l26 20 0 170 c0 154 -2 171 -19 188 -17
17 -18 21 -5 32 13 11 19 6 15 -15 -1 -5 5 -4 13 3 9 7 14 17 11 21 -2 4 4 15
14 24 17 15 21 15 63 -9 25 -14 67 -27 94 -30 43 -4 45 -3 11 4 -52 11 -54 16
-18 50 56 52 136 50 195 -4 33 -31 33 -43 -1 -48 -16 -2 -8 -3 16 -1 24 2 64
15 89 29 43 24 46 25 66 8 19 -17 20 -17 7 0 -7 9 -10 17 -5 17 5 0 22 -17 38
-37 17 -20 23 -34 15 -31 -21 8 -21 8 -26 -190 -4 -172 2 -212 30 -195 6 3 7
1 3 -5 -3 -6 1 -15 10 -20 11 -6 13 -11 5 -16 -14 -9 -14 -26 0 -26 5 0 8 4 5
9 -3 4 6 19 19 31 19 18 22 26 13 32 -10 6 -10 8 0 8 6 0 12 4 12 10 0 5 -7 7
-15 4 -9 -4 -14 -13 -13 -22 2 -8 -3 -17 -11 -20 -10 -3 -12 0 -8 11 4 10 -1
17 -14 20 -10 3 -19 10 -19 16 0 9 6 9 22 0 18 -10 24 -8 38 11 10 13 24 21
32 17 8 -3 21 -1 29 4 10 6 5 9 -18 9 -17 0 -38 -7 -47 -15 -19 -20 -66 -10
-66 14 0 9 9 35 19 58 11 23 17 44 13 47 -3 4 -11 -6 -17 -21 -10 -24 -12 -14
-13 69 -1 93 0 97 21 100 15 2 23 11 25 30 2 20 -7 38 -41 73 l-44 46 -60 -33
-60 -33 -29 34 c-48 57 -116 75 -180 47z m-197 -54 c-10 -10 -15 -22 -12 -25
3 -4 0 -3 -7 2 -12 11 6 41 25 41 5 0 3 -8 -6 -18z m-52 -72 c-3 -5 3 -13 12
-19 16 -9 16 -10 -4 -11 -18 0 -23 6 -23 26 0 14 4 23 10 19 6 -4 8 -10 5 -15z
m655 -5 c0 -20 -5 -25 -22 -24 -19 1 -19 2 -5 6 10 3 16 11 13 18 -4 12 1 25
11 25 2 0 3 -11 3 -25z m-632 -327 c-3 -7 -14 -14 -26 -16 -13 -2 -19 -8 -15
-18 3 -8 -1 -14 -11 -14 -22 0 -20 9 6 37 23 24 52 31 46 11z"/>
<path d="M2664 3179 c-19 -22 -19 -22 4 -8 12 8 22 17 22 21 0 12 -6 9 -26
-13z"/>
<path d="M1965 3110 c3 -5 8 -10 11 -10 2 0 4 5 4 10 0 6 -5 10 -11 10 -5 0
-7 -4 -4 -10z"/>
<path d="M1365 3085 c27 -14 71 -33 97 -44 32 -13 48 -26 48 -38 0 -15 2 -15
10 -3 15 24 80 -12 80 -44 0 -25 28 -62 39 -51 3 4 -2 11 -12 16 -19 11 -13
33 6 23 7 -3 4 1 -5 9 -10 8 -18 17 -18 20 0 4 8 4 18 2 9 -3 3 1 -14 9 -17 8
-36 21 -43 29 -7 9 -21 13 -33 9 -12 -3 -19 -1 -15 4 3 6 1 16 -5 24 -8 12 -9
12 -4 -2 3 -10 3 -18 1 -18 -2 0 -46 18 -96 40 -101 44 -133 52 -54 15z"/>
<path d="M3403 3094 c-3 -8 0 -21 6 -27 7 -7 12 -7 11 -2 -5 25 2 33 25 31 13
-2 22 1 19 5 -9 15 -54 10 -61 -7z"/>
<path d="M1251 3097 c2 -1 11 -8 20 -15 13 -9 16 -9 16 3 0 8 -9 15 -20 15
-11 0 -18 -1 -16 -3z"/>
<path d="M2020 3092 c0 -6 -7 -17 -15 -26 -9 -9 -11 -17 -5 -21 10 -6 35 44
25 53 -3 3 -5 0 -5 -6z"/>
<path d="M1019 3074 c-16 -19 -24 -98 -12 -119 9 -15 11 -16 16 -1 4 9 2 16
-3 16 -6 0 -10 16 -10 35 0 19 4 35 10 35 5 0 7 7 4 15 -4 8 -2 15 2 16 5 0
20 2 34 3 29 4 81 -14 62 -21 -6 -3 -10 -9 -7 -13 7 -11 35 -2 35 11 0 27
-111 47 -131 23z"/>
<path d="M1535 3079 c-8 -12 -10 -11 40 -28 22 -8 46 -16 54 -19 9 -3 12 -1 7
6 -4 7 -16 12 -27 12 -10 0 -19 5 -19 10 0 6 -12 10 -26 10 -14 0 -23 4 -19
10 3 6 4 10 1 10 -3 0 -8 -5 -11 -11z"/>
<path d="M2498 3083 c12 -2 30 -2 40 0 9 3 -1 5 -23 4 -22 0 -30 -2 -17 -4z"/>
<path d="M1305 3060 c3 -5 8 -10 11 -10 2 0 4 5 4 10 0 6 -5 10 -11 10 -5 0
-7 -4 -4 -10z"/>
<path d="M1078 3053 c-10 -2 -18 -9 -18 -14 0 -14 16 -11 30 6 7 8 11 14 9 14
-2 -1 -12 -3 -21 -6z"/>
<path d="M2463 3053 c9 -2 23 -2 30 0 6 3 -1 5 -18 5 -16 0 -22 -2 -12 -5z"/>
<path d="M2568 3048 c27 -6 42 -15 42 -25 0 -10 -5 -13 -17 -8 -10 3 -40 8
-68 10 l-50 4 53 -9 c64 -12 92 -26 92 -46 0 -8 11 -19 25 -24 14 -5 34 -24
45 -42 23 -38 27 -30 5 12 -8 16 -24 31 -35 35 -11 4 -17 11 -14 17 4 7 2 8
-4 4 -16 -10 -15 5 2 27 18 23 25 21 20 -5 -4 -21 -4 -21 6 2 9 20 13 22 20
10 8 -13 10 -12 10 3 0 12 -8 17 -29 17 -16 0 -45 7 -64 15 -20 8 -47 15 -59
14 -13 -1 -5 -5 20 -11z m67 -27 c3 -5 1 -12 -5 -16 -5 -3 -10 1 -10 9 0 18 6
21 15 7z"/>
<path d="M1281 3028 c15 -13 29 -30 32 -38 4 -10 6 -11 6 -2 1 7 5 11 9 8 5
-3 9 1 9 9 0 8 -8 15 -16 15 -9 0 -28 7 -41 16 -24 15 -24 15 1 -8z"/>
<path d="M2407 3039 c-10 -6 -34 -9 -53 -7 -32 4 -34 2 -34 -24 0 -16 -9 -46
-20 -68 -11 -22 -20 -45 -20 -52 0 -7 11 11 25 40 14 30 25 63 25 73 0 27 19
23 30 -6 5 -14 15 -25 22 -25 9 0 9 3 2 8 -12 8 -26 42 -17 42 7 0 32 -32 33
-42 0 -3 -15 -15 -34 -26 -42 -25 -60 -74 -54 -148 7 -85 65 -150 161 -178 25
-8 21 -26 -5 -27 -19 -1 -18 -2 7 -10 50 -15 161 15 198 53 10 10 32 18 50 19
18 0 26 3 19 6 -6 2 -9 10 -6 16 5 8 2 8 -7 0 -19 -18 -34 -16 -18 3 8 10 21
13 37 9 15 -4 21 -2 17 5 -3 5 -12 10 -20 10 -11 0 -12 6 -3 31 6 16 8 32 5
35 -3 3 -8 -8 -12 -25 -15 -67 -141 -166 -189 -148 -8 3 -17 1 -20 -6 -2 -7
-5 -2 -5 11 -1 13 3 21 7 18 17 -10 83 16 119 47 46 40 73 99 72 157 0 25 -3
38 -7 30 -4 -8 -18 -17 -32 -18 -36 -5 -38 -12 -4 -12 23 0 30 -5 31 -20 1
-11 -3 -20 -8 -20 -6 0 -7 -4 -4 -10 15 -25 -53 -111 -105 -132 -31 -13 -114
-11 -156 2 -29 10 -96 78 -96 97 0 4 -3 13 -7 18 -5 6 -8 29 -8 53 0 34 3 42
18 42 10 0 22 -7 27 -16 8 -15 10 -15 15 0 5 11 -2 17 -27 22 -26 4 -33 10
-29 24 7 28 43 62 59 56 9 -3 16 4 20 20 4 16 19 32 38 41 30 13 30 14 4 8
-20 -4 -28 -1 -28 9 0 8 6 17 13 19 6 3 8 6 2 6 -5 0 -18 -4 -28 -10z m3 -29
c0 -5 -2 -10 -4 -10 -3 0 -8 5 -11 10 -3 6 -1 10 4 10 6 0 11 -4 11 -10z m100
-400 c0 -11 -4 -20 -8 -20 -4 0 -8 9 -8 20 0 11 4 20 8 20 4 0 8 -9 8 -20z"/>
<path d="M2915 3041 c-10 -17 12 -21 25 -6 10 12 10 15 -3 15 -9 0 -18 -4 -22
-9z"/>
<path d="M3860 3046 c0 -2 8 -10 18 -17 15 -13 16 -12 3 4 -13 16 -21 21 -21
13z"/>
<path d="M1351 3037 c2 -1 13 -9 24 -17 19 -14 19 -14 6 3 -7 9 -18 17 -24 17
-6 0 -8 -1 -6 -3z"/>
<path d="M2120 3036 c0 -2 8 -10 18 -17 15 -13 16 -12 3 4 -13 16 -21 21 -21
13z"/>
<path d="M3197 3033 c-13 -12 -7 -23 12 -23 10 0 21 7 25 15 5 15 -24 22 -37
8z"/>
<path d="M2100 3026 c0 -2 8 -10 18 -17 15 -13 16 -12 3 4 -13 16 -21 21 -21
13z"/>
<path d="M2864 2998 l-29 -33 33 29 c17 17 32 31 32 33 0 8 -8 1 -36 -29z"/>
<path d="M3915 3000 c10 -11 20 -20 23 -20 3 0 -3 9 -13 20 -10 11 -20 20 -23
20 -3 0 3 -9 13 -20z"/>
<path d="M1133 2995 c0 -8 4 -12 9 -9 5 3 6 10 3 15 -9 13 -12 11 -12 -6z"/>
<path d="M1644 2995 c8 -8 20 -15 27 -15 7 0 4 6 -7 15 -25 19 -40 19 -20 0z"/>
<path d="M3352 2990 c0 -14 2 -19 5 -12 2 6 2 18 0 25 -3 6 -5 1 -5 -13z"/>
<path d="M2175 2980 c10 -11 20 -20 23 -20 3 0 -3 9 -13 20 -10 11 -20 20 -23
20 -3 0 3 -9 13 -20z"/>
<path d="M1367 2979 c20 -20 3 -48 -33 -55 -19 -3 -34 -10 -34 -16 0 -5 -5 -6
-12 -2 -8 5 -9 2 -5 -9 4 -10 0 -20 -11 -26 -9 -6 -13 -11 -9 -11 5 0 22 9 38
20 15 12 45 27 66 35 21 7 32 14 26 14 -7 1 -13 8 -13 16 0 17 35 21 45 5 3
-5 11 -10 16 -10 6 0 4 7 -5 15 -8 8 -21 15 -30 15 -8 0 -18 5 -21 10 -3 6
-11 10 -18 10 -8 0 -8 -3 0 -11z"/>
<path d="M1450 2986 c0 -2 7 -6 15 -10 8 -3 15 -1 15 4 0 6 -7 10 -15 10 -8 0
-15 -2 -15 -4z"/>
<path d="M2700 2982 c0 -7 9 -30 20 -52 11 -22 24 -63 30 -92 l9 -53 -4 53
c-4 47 -54 178 -55 144z"/>
<path d="M1075 2960 l20 -23 -24 6 c-17 4 -21 3 -13 -5 12 -12 42 -4 42 11 0
6 -10 16 -22 22 l-23 12 20 -23z"/>
<path d="M1157 2973 c-4 -6 6 -22 21 -35 28 -24 39 -58 18 -58 -6 0 -4 -5 4
-10 13 -9 13 -10 0 -10 -28 0 -90 21 -90 30 0 6 5 10 11 10 5 0 7 5 4 10 -9
15 -25 2 -25 -20 0 -20 50 -40 98 -40 19 0 22 5 22 35 0 24 -6 37 -21 45 -11
6 -24 21 -28 32 -5 13 -10 17 -14 11z"/>
<path d="M1925 2970 c-4 -6 -12 -8 -18 -4 -7 3 -3 -2 7 -10 11 -9 17 -19 13
-23 -4 -3 -15 1 -24 9 -32 27 -49 32 -22 6 15 -14 35 -28 44 -32 15 -5 17 -2
11 26 -4 24 -3 29 4 18 5 -8 10 -31 11 -50 1 -19 3 -27 6 -17 2 9 9 15 14 12
15 -10 10 8 -11 43 -21 35 -26 37 -35 22z"/>
<path d="M2082 2968 c3 -7 9 -13 14 -13 5 0 15 -4 23 -9 10 -6 12 -5 7 2 -4 7
-16 17 -28 23 -16 9 -19 8 -16 -3z"/>
<path d="M3940 2966 c0 -2 8 -10 18 -17 15 -13 16 -12 3 4 -13 16 -21 21 -21
13z"/>
<path d="M2889 2933 l-24 -28 28 24 c25 23 32 31 24 31 -2 0 -14 -12 -28 -27z"/>
<path d="M3353 2930 c-13 -35 -48 -51 -107 -49 -23 1 -52 -3 -64 -10 -21 -11
-33 1 -12 14 6 3 10 17 10 30 0 23 -1 24 -35 9 -19 -7 -51 -14 -70 -14 -33 0
-36 2 -31 23 l6 22 -11 -22 c-9 -17 -18 -21 -35 -17 -29 7 -32 -11 -5 -28 15
-9 17 -17 10 -35 -5 -14 -9 -48 -9 -78 0 -43 5 -60 26 -84 14 -17 33 -31 42
-30 13 0 11 3 -4 9 -36 14 -54 50 -54 105 0 27 3 60 6 73 6 21 10 22 53 16 55
-8 61 -12 40 -27 -37 -28 -52 -94 -25 -116 21 -18 76 10 76 39 0 6 5 8 12 4 7
-4 8 -3 4 4 -10 17 -26 15 -26 -2 0 -19 -38 -46 -56 -39 -18 7 -18 37 0 72 18
34 46 59 46 41 0 -7 11 -3 26 9 20 16 41 21 85 21 l59 0 1 -32 c1 -18 1 -39 0
-46 -3 -17 24 -26 54 -18 30 8 88 57 116 100 14 21 9 17 -15 -11 -42 -48 -94
-83 -125 -83 -31 0 -26 17 8 25 36 8 68 40 50 51 -7 4 -10 3 -6 -3 8 -13 -9
-28 -40 -37 -24 -8 -33 9 -10 17 6 2 4 3 -5 2 -23 -4 -19 33 8 68 26 32 31 33
58 10 12 -10 8 -3 -8 15 -17 17 -30 32 -31 32 0 0 -6 -13 -12 -30z m-183 -24
c0 -39 -91 -47 -155 -13 -25 12 -23 13 32 9 32 -2 69 1 83 7 34 14 40 13 40
-3z"/>
<path d="M1130 2942 c0 -4 10 -13 23 -21 22 -14 22 -14 3 8 -20 22 -26 25 -26
13z"/>
<path d="M2920 2930 c-6 -11 -8 -20 -6 -20 3 0 10 9 16 20 6 11 8 20 6 20 -3
0 -10 -9 -16 -20z"/>
<path d="M3461 2943 c-1 -6 -4 -20 -7 -30 -5 -17 -5 -17 6 0 6 10 9 23 6 30
-3 9 -5 9 -5 0z"/>
<path d="M2110 2920 c6 -11 13 -20 16 -20 2 0 0 9 -6 20 -6 11 -13 20 -16 20
-2 0 0 -9 6 -20z"/>
<path d="M1029 2916 c8 -9 23 -22 33 -27 15 -8 18 -6 18 11 0 12 -4 18 -10 15
-5 -3 -20 0 -32 6 -21 11 -22 11 -9 -5z"/>
<path d="M1420 2923 c0 -15 18 -35 23 -27 3 5 -1 15 -9 22 -8 7 -14 9 -14 5z"/>
<path d="M3870 2916 c0 -2 8 -10 18 -17 15 -13 16 -12 3 4 -13 16 -21 21 -21
13z"/>
<path d="M1150 2890 c8 -5 20 -10 25 -10 6 0 3 5 -5 10 -8 5 -19 10 -25 10 -5
0 -3 -5 5 -10z"/>
<path d="M1488 2888 c5 -5 16 -8 23 -6 8 3 3 7 -10 11 -17 4 -21 3 -13 -5z"/>
<path d="M2846 2888 c3 -5 10 -6 15 -3 13 9 11 12 -6 12 -8 0 -12 -4 -9 -9z"/>
<path d="M1628 2863 c5 -21 7 -23 10 -9 2 10 0 22 -6 28 -6 6 -7 0 -4 -19z"/>
<path d="M2447 2883 c-12 -12 -7 -42 13 -80 11 -21 20 -32 20 -25 0 7 -7 24
-16 37 -9 14 -14 36 -12 50 6 27 5 29 -5 18z"/>
<path d="M3356 2875 c-11 -8 -15 -15 -9 -15 6 0 16 7 23 15 16 19 11 19 -14 0z"/>
<path d="M1452 2875 c2 -5 15 -34 28 -63 17 -38 26 -49 32 -40 6 9 7 6 3 -8
-4 -16 3 -29 27 -49 38 -32 79 -29 118 10 l25 25 -23 0 c-12 0 -25 6 -28 14
-5 13 -24 23 -78 40 -18 6 -18 7 -1 20 16 12 14 14 -24 19 -24 3 -52 14 -63
24 -12 10 -19 14 -16 8z m85 -137 c-3 -7 -5 -2 -5 12 0 14 2 19 5 13 2 -7 2
-19 0 -25z m20 -15 c-3 -10 -5 -4 -5 12 0 17 2 24 5 18 2 -7 2 -21 0 -30z m20
-10 c-3 -10 -5 -4 -5 12 0 17 2 24 5 18 2 -7 2 -21 0 -30z m20 0 c-3 -10 -5
-4 -5 12 0 17 2 24 5 18 2 -7 2 -21 0 -30z m30 5 c-3 -8 -6 -5 -6 6 -1 11 2
17 5 13 3 -3 4 -12 1 -19z"/>
<path d="M1730 2851 c0 -11 4 -22 9 -25 4 -3 6 6 3 19 -5 30 -12 33 -12 6z"/>
<path d="M1890 2854 c0 -8 5 -12 10 -9 6 4 8 11 5 16 -9 14 -15 11 -15 -7z"/>
<path d="M1928 2863 c7 -3 16 -2 19 1 4 3 -2 6 -13 5 -11 0 -14 -3 -6 -6z"/>
<path d="M2094 2863 c10 -11 37 -12 30 -2 -3 5 -12 9 -21 9 -9 0 -13 -3 -9 -7z"/>
<path d="M2273 2825 c0 -27 2 -38 4 -22 2 15 2 37 0 50 -2 12 -4 0 -4 -28z"/>
<path d="M2556 2846 c-4 -16 -16 -41 -27 -54 -10 -14 -19 -32 -19 -41 0 -14
-2 -14 -10 -1 -6 9 -10 10 -10 3 0 -27 20 -22 35 9 9 18 23 46 31 61 9 15 14
33 11 40 -2 6 -7 -1 -11 -17z"/>
<path d="M2928 2863 c7 -3 16 -2 19 1 4 3 -2 6 -13 5 -11 0 -14 -3 -6 -6z"/>
<path d="M1944 2845 c-16 -13 -17 -14 -1 -9 12 4 17 1 17 -11 0 -12 -5 -15
-17 -10 -14 5 -15 3 -6 -6 14 -14 29 -6 36 21 7 26 -6 33 -29 15z"/>
<path d="M2895 2850 c-4 -6 -10 -8 -14 -6 -4 3 -12 -9 -19 -26 -6 -18 -8 -27
-4 -22 4 5 18 21 31 37 14 15 22 27 18 27 -3 0 -9 -5 -12 -10z"/>
<path d="M2151 2840 c0 -8 6 -24 14 -34 19 -25 19 -9 0 24 -8 14 -14 19 -14
10z"/>
<path d="M2400 2829 c-13 -9 -13 -10 2 -5 12 3 18 -2 21 -17 4 -18 5 -17 6 6
1 29 -5 33 -29 16z"/>
<path d="M1397 2810 c-3 -11 -1 -20 4 -20 5 0 9 9 9 20 0 11 -2 20 -4 20 -2 0
-6 -9 -9 -20z"/>
<path d="M1654 2819 c-3 -6 2 -18 12 -27 17 -16 17 -16 5 0 -7 9 -10 22 -6 28
3 5 4 10 1 10 -3 0 -8 -5 -12 -11z"/>
<path d="M1428 2813 c7 -3 16 -2 19 1 4 3 -2 6 -13 5 -11 0 -14 -3 -6 -6z"/>
<path d="M2625 2810 c-3 -5 -2 -10 4 -10 5 0 13 5 16 10 3 6 2 10 -4 10 -5 0
-13 -4 -16 -10z"/>
<path d="M4011 2804 c0 -11 3 -14 6 -6 3 7 2 16 -1 19 -3 4 -6 -2 -5 -13z"/>
<path d="M1303 2790 c-1 -11 2 -20 8 -20 5 0 9 7 9 15 0 9 9 15 23 15 18 0 19
-2 7 -10 -13 -8 -12 -10 3 -10 30 0 13 25 -19 28 -24 2 -30 -1 -31 -18z"/>
<path d="M3960 2810 c-2 -6 -6 -24 -14 -55 -2 -11 -10 -33 -16 -50 -23 -57
-29 -103 -13 -110 9 -3 13 -12 9 -22 -4 -10 -4 -14 0 -11 3 4 15 -3 26 -15 22
-25 14 -6 -15 36 -22 32 -20 62 13 151 11 32 19 63 16 70 -2 6 -5 9 -6 6z"/>
<path d="M1940 2770 c-8 -5 -10 -10 -5 -10 6 0 17 5 25 10 8 5 11 10 5 10 -5
0 -17 -5 -25 -10z"/>
<path d="M2554 2765 c-18 -14 -18 -14 4 -8 12 3 22 9 22 14 0 12 -3 11 -26 -6z"/>
<path d="M2840 2771 c0 -6 4 -13 10 -16 6 -3 7 1 4 9 -7 18 -14 21 -14 7z"/>
<path d="M2280 2762 c0 -7 5 -22 10 -33 8 -15 7 -19 -4 -19 -8 0 -17 -4 -21
-9 -3 -6 7 -9 21 -8 16 1 29 -4 32 -13 5 -13 3 -13 -13 0 -10 8 -16 10 -12 3
4 -6 1 -14 -5 -16 -7 -3 1 -6 19 -6 34 -1 52 -16 31 -25 -9 -4 -8 -5 2 -4 8 1
32 -6 54 -15 51 -22 60 -21 16 2 -49 26 -89 69 -111 116 -10 22 -19 34 -19 27z"/>
<path d="M2432 2750 c7 -10 14 -18 15 -16 6 6 -9 36 -18 36 -5 0 -4 -9 3 -20z"/>
<path d="M1226 2743 c-6 -14 -5 -15 5 -6 7 7 10 15 7 18 -3 3 -9 -2 -12 -12z"/>
<path d="M1480 2753 c0 -18 60 -83 76 -83 17 0 19 -30 2 -30 -7 0 -5 -5 5 -11
18 -10 18 -12 -5 -37 -18 -21 -15 -20 12 4 19 17 41 30 48 29 7 -2 8 -1 2 2
-5 2 -10 13 -10 23 0 12 -10 20 -33 24 -33 6 -63 31 -85 71 -6 11 -12 15 -12
8z m120 -108 c0 -8 -4 -15 -10 -15 -5 0 -10 7 -10 15 0 8 5 15 10 15 6 0 10
-7 10 -15z"/>
<path d="M1691 2744 c0 -11 3 -14 6 -6 3 7 2 16 -1 19 -3 4 -6 -2 -5 -13z"/>
<path d="M3585 2750 c-4 -6 1 -7 11 -3 12 4 15 3 10 -5 -4 -7 -2 -12 3 -12 6
0 11 7 11 15 0 17 -25 20 -35 5z"/>
<path d="M1958 2733 c-9 -10 -21 -29 -27 -43 l-12 -25 21 25 c45 53 50 60 41
60 -4 0 -15 -8 -23 -17z"/>
<path d="M3193 2743 c25 -6 21 -20 -8 -27 -14 -4 -25 -11 -25 -17 0 -5 -15
-16 -32 -24 -18 -8 -25 -14 -16 -15 9 0 29 10 45 23 15 13 36 26 46 30 25 9
22 37 -5 36 -17 -1 -19 -2 -5 -6z"/>
<path d="M3290 2729 c-22 -18 -22 -19 -3 -10 12 6 25 16 28 21 9 15 3 12 -25
-11z"/>
<path d="M2018 2708 c31 -7 42 -14 42 -28 0 -10 -4 -22 -10 -25 -5 -3 -10 -11
-10 -18 0 -18 29 27 30 46 0 19 -38 38 -73 36 -12 -1 -3 -5 21 -11z"/>
<path d="M2090 2716 c0 -2 7 -7 16 -10 8 -3 12 -2 9 4 -6 10 -25 14 -25 6z"/>
<path d="M2916 2711 c-4 -5 3 -7 14 -4 23 6 26 13 6 13 -8 0 -17 -4 -20 -9z"/>
<path d="M3590 2705 c0 -8 5 -15 10 -15 6 0 10 7 10 15 0 8 -4 15 -10 15 -5 0
-10 -7 -10 -15z"/>
<path d="M3623 2705 c0 -8 4 -15 9 -15 4 0 8 -7 8 -15 0 -10 -12 -15 -37 -17
l-38 -1 33 -4 c27 -4 32 -8 27 -21 -5 -14 -4 -15 6 -4 15 14 79 16 79 2 0 -20
-34 -95 -47 -103 -7 -4 -13 -13 -13 -20 -1 -18 -34 -54 -56 -60 -12 -3 -8 -5
12 -6 17 0 53 -8 80 -16 67 -20 90 -19 108 7 14 20 16 20 16 4 0 -15 3 -16 15
-6 8 7 15 20 15 29 0 12 -2 13 -9 3 -6 -10 -12 -7 -24 12 -15 23 -15 26 2 48
l19 23 28 -25 c38 -33 12 1 -43 57 -42 43 -71 62 -34 21 11 -11 18 -25 15 -30
-3 -4 2 -8 10 -8 9 0 16 -4 16 -10 0 -5 -4 -10 -8 -10 -5 0 -14 -11 -20 -25
-13 -29 -29 -31 -77 -11 l-35 15 25 65 25 66 -30 0 c-17 0 -30 5 -30 13 0 9
-3 8 -9 -1 -6 -10 -10 -3 -15 22 -7 35 -23 50 -23 21z m134 -224 l38 -9 -33
-1 c-38 -1 -102 23 -102 39 0 6 11 5 30 -5 16 -8 46 -19 67 -24z m-97 -16 c0
-8 -4 -15 -9 -15 -13 0 -22 16 -14 24 11 11 23 6 23 -9z m48 -13 c2 -7 -5 -12
-17 -12 -14 0 -19 5 -14 15 6 17 25 15 31 -3z m52 -13 c0 -5 -7 -9 -15 -9 -15
0 -20 12 -9 23 8 8 24 -1 24 -14z m30 5 c0 -8 -4 -12 -10 -9 -5 3 -10 10 -10
16 0 5 5 9 10 9 6 0 10 -7 10 -16z"/>
<path d="M1411 2676 l-24 -31 28 27 c16 15 27 29 24 31 -2 3 -15 -10 -28 -27z"/>
<path d="M2516 2682 l-19 -27 24 22 c12 12 21 24 18 27 -2 2 -13 -8 -23 -22z"/>
<path d="M3219 2685 c-30 -20 -57 -55 -47 -59 2 -1 22 18 46 42 23 23 41 42
40 42 -2 0 -20 -11 -39 -25z"/>
<path d="M1123 2693 c9 -2 25 -2 35 0 9 3 1 5 -18 5 -19 0 -27 -2 -17 -5z"/>
<path d="M1251 2671 c-17 -13 -22 -24 -17 -39 4 -11 0 -37 -9 -58 -8 -20 -14
-39 -11 -41 8 -9 36 80 31 98 -5 13 1 26 17 39 29 25 21 26 -11 1z"/>
<path d="M3362 2675 c1 -37 -2 -43 -19 -40 -10 1 -23 -2 -29 -7 -7 -5 -18 -7
-25 -6 -7 2 -15 -5 -17 -16 -4 -17 -3 -18 19 -2 13 9 38 16 56 16 l33 0 2 -57
2 -58 3 50 c2 28 -3 70 -11 95 -8 25 -15 36 -14 25z"/>
<path d="M1143 2673 c9 -2 25 -2 35 0 9 3 1 5 -18 5 -19 0 -27 -2 -17 -5z"/>
<path d="M1630 2659 c16 -28 35 -33 71 -19 27 11 34 11 57 -7 15 -11 30 -31
33 -44 7 -22 7 -23 8 -2 1 12 -12 32 -29 46 -16 14 -30 32 -30 39 0 8 -3 9 -8
3 -4 -6 -19 -16 -34 -24 -22 -11 -30 -12 -43 -1 -8 7 -12 16 -9 21 3 5 -2 9
-11 9 -13 0 -14 -4 -5 -21z"/>
<path d="M4037 2650 c4 -16 3 -21 -5 -16 -8 5 -10 1 -5 -10 4 -11 2 -15 -4
-11 -6 4 -8 -3 -5 -19 4 -23 6 -24 20 -11 17 18 19 64 4 79 -8 8 -9 4 -5 -12z"/>
<path d="M1490 2650 c0 -5 10 -10 23 -10 18 0 19 2 7 10 -19 13 -30 13 -30 0z"/>
<path d="M1895 2650 c-4 -6 -16 -10 -26 -7 -23 6 -24 -3 -4 -29 12 -14 14 -15
9 -2 -4 12 1 17 20 20 19 2 23 7 17 17 -6 10 -10 10 -16 1z"/>
<path d="M2249 2649 c-20 -12 -8 -16 26 -9 27 5 28 6 9 12 -12 3 -28 2 -35 -3z"/>
<path d="M2745 2649 l-20 -9 20 2 c11 2 27 -2 35 -7 13 -8 13 -7 1 8 -7 9 -14
17 -15 16 0 0 -10 -5 -21 -10z"/>
<path d="M3990 2651 c0 -6 4 -13 10 -16 6 -3 7 1 4 9 -7 18 -14 21 -14 7z"/>
<path d="M2180 2646 c0 -4 7 -15 16 -24 14 -13 14 -17 3 -20 -21 -7 -59 -44
-59 -58 0 -7 12 -14 28 -16 23 -3 27 -7 27 -36 0 -18 7 -37 15 -42 11 -7 7
-12 -20 -24 l-35 -15 42 -1 c34 0 41 3 37 15 -5 11 1 15 20 15 16 0 26 -6 26
-15 0 -18 8 -18 40 0 43 25 95 19 128 -15 17 -16 36 -30 44 -30 7 0 0 9 -17
20 -16 11 -35 32 -42 47 -7 16 -12 23 -13 17 0 -7 -17 -12 -39 -12 -22 0 -49
-6 -60 -12 -18 -9 -21 -8 -21 8 0 22 36 72 51 72 6 0 7 -5 3 -12 -5 -7 -3 -8
5 -3 18 10 -3 29 -24 22 -8 -4 -25 -22 -36 -42 -21 -35 -34 -40 -77 -29 -28 8
-22 36 16 77 14 15 21 27 15 27 -6 0 -16 -7 -23 -15 -10 -12 -64 -12 -79 1
-11 9 27 36 68 48 25 8 37 15 27 15 -11 1 -30 11 -43 23 -13 12 -23 18 -23 14z"/>
<path d="M1070 2636 c0 -4 5 -16 10 -27 9 -16 7 -21 -14 -30 -31 -14 -40 -37
-24 -56 10 -13 13 -12 20 6 4 12 20 26 35 32 16 7 23 13 16 16 -7 3 -13 10
-13 16 -1 13 -30 56 -30 43z"/>
<path d="M2081 2626 c-24 -13 -22 -14 30 -18 63 -5 76 -1 28 9 -33 7 -33 7 -9
14 l25 7 -25 1 c-14 0 -36 -6 -49 -13z"/>
<path d="M2894 2633 c32 -8 -50 -32 -93 -27 l-36 4 35 -11 c19 -5 43 -19 53
-31 9 -11 17 -16 17 -11 0 5 -6 15 -12 21 -19 19 7 32 62 32 42 1 44 2 26 15
-11 8 -31 14 -45 14 -21 -1 -22 -2 -7 -6z"/>
<path d="M1430 2613 c0 -14 -2 -15 -9 -5 -6 11 -10 10 -15 -4 -6 -16 -8 -16
-21 2 -8 10 -15 14 -15 8 0 -18 27 -37 35 -24 3 6 11 7 17 4 6 -4 14 0 19 7
12 19 11 29 -1 29 -5 0 -10 -8 -10 -17z"/>
<path d="M1456 2615 c-3 -8 -1 -15 4 -15 6 0 10 7 10 15 0 8 -2 15 -4 15 -2 0
-6 -7 -10 -15z"/>
<path d="M3494 2619 c-9 -15 -11 -109 -2 -109 3 0 8 27 10 60 3 64 3 66 -8 49z"/>
<path d="M2026 2611 c-4 -6 -2 -11 3 -11 18 0 12 -18 -6 -23 -16 -4 -16 -5 -1
-6 22 -1 31 15 20 35 -6 11 -11 13 -16 5z"/>
<path d="M3185 2585 c22 -14 52 -25 68 -25 15 0 27 -5 27 -11 0 -17 -70 -2
-104 23 -26 19 -29 19 -45 3 -15 -16 -14 -18 8 -33 l23 -16 -33 -12 c-34 -13
-34 -13 12 -7 57 7 91 -9 87 -40 -2 -15 -11 -23 -28 -25 -21 -3 -22 -2 -11 12
14 16 7 36 -12 36 -8 0 -7 -3 2 -9 17 -11 6 -31 -17 -31 -15 -1 -15 -2 1 -11
30 -18 70 -7 78 21 l6 25 13 -27 c8 -17 10 -32 4 -41 -5 -7 -2 -6 6 3 13 14
18 14 41 1 32 -18 79 -8 79 17 -1 16 -1 16 -11 0 -16 -29 -55 -21 -100 19 -40
36 -41 38 -18 43 17 4 23 13 24 35 0 26 -4 30 -37 36 -20 3 -48 13 -62 22 -14
9 -29 17 -33 17 -4 0 10 -12 32 -25z m-25 -30 c0 -9 -6 -12 -15 -9 -8 4 -15
10 -15 15 0 5 7 9 15 9 8 0 15 -7 15 -15z m50 -20 c13 -16 3 -20 -24 -9 -9 3
-13 10 -10 15 8 13 20 11 34 -6z m55 -15 c3 -5 -3 -10 -14 -10 -12 0 -21 5
-21 10 0 6 6 10 14 10 8 0 18 -4 21 -10z"/>
<path d="M1958 2589 c-11 -6 -18 -22 -18 -39 0 -32 8 -37 29 -17 11 10 13 10
7 0 -4 -7 -3 -13 3 -13 6 0 15 9 21 19 7 15 7 22 -3 28 -8 4 -16 13 -18 20 -3
8 -9 9 -21 2z"/>
<path d="M1282 2570 c0 -14 2 -19 5 -12 2 6 2 18 0 25 -3 6 -5 1 -5 -13z"/>
<path d="M1591 2574 c0 -11 3 -14 6 -6 3 7 2 16 -1 19 -3 4 -6 -2 -5 -13z"/>
<path d="M1877 2583 c-5 -9 10 -53 17 -53 3 0 1 11 -4 24 -5 13 -6 27 -3 30 4
3 4 6 0 6 -3 0 -8 -3 -10 -7z"/>
<path d="M2995 2567 c-4 -15 -5 -31 -1 -34 3 -4 6 2 6 13 1 16 2 17 13 4 15
-19 47 -22 47 -5 0 8 -8 11 -18 8 -12 -3 -22 3 -29 19 l-11 23 -7 -28z"/>
<path d="M3638 2583 c7 -3 16 -2 19 1 4 3 -2 6 -13 5 -11 0 -14 -3 -6 -6z"/>
<path d="M1410 2555 c0 -8 4 -15 10 -15 5 0 7 7 4 15 -4 8 -8 15 -10 15 -2 0
-4 -7 -4 -15z"/>
<path d="M1515 2560 c-8 -13 11 -37 39 -51 13 -7 10 -1 -8 13 -17 15 -26 30
-22 36 4 7 5 12 2 12 -3 0 -8 -5 -11 -10z"/>
<path d="M2064 2556 c-10 -8 -17 -17 -14 -19 3 -3 16 3 30 13 29 22 14 27 -16
6z"/>
<path d="M2377 2559 c7 -7 15 -10 18 -7 3 3 -2 9 -12 12 -14 6 -15 5 -6 -5z"/>
<path d="M2762 2548 c15 -12 34 -39 43 -58 l15 -35 -3 35 c-2 31 1 35 28 42
24 6 22 7 -12 4 -24 -2 -45 0 -49 5 -3 5 -15 14 -27 20 -17 8 -16 6 5 -13z"/>
<path d="M1831 2536 c7 -15 15 -23 17 -16 3 7 -3 19 -13 28 -15 16 -16 15 -4
-12z"/>
<path d="M2420 2540 c8 -5 24 -10 34 -10 26 0 18 6 -19 14 -22 5 -26 4 -15 -4z"/>
<path d="M2580 2540 c-21 -7 -21 -8 -5 -9 11 0 27 4 35 9 18 11 5 11 -30 0z"/>
<path d="M3583 2539 c9 -5 18 -22 18 -37 2 -24 2 -25 6 -4 5 24 -12 52 -31 52
-6 0 -3 -5 7 -11z"/>
<path d="M1468 2520 c42 -26 56 -26 17 0 -16 11 -34 20 -40 20 -5 0 5 -9 23
-20z"/>
<path d="M1738 2533 c7 -3 16 -2 19 1 4 3 -2 6 -13 5 -11 0 -14 -3 -6 -6z"/>
<path d="M1697 2512 c-36 -40 -6 -113 46 -112 19 1 18 3 -9 14 -46 20 -58 64
-27 98 9 10 14 18 11 18 -3 0 -12 -8 -21 -18z"/>
<path d="M2503 2523 c9 -2 25 -2 35 0 9 3 1 5 -18 5 -19 0 -27 -2 -17 -5z"/>
<path d="M2646 2521 c-4 -5 -1 -13 5 -17 8 -4 9 -3 5 4 -4 7 -3 12 3 12 15 0
51 -50 51 -72 0 -16 -3 -17 -21 -8 -11 6 -38 12 -59 12 -27 0 -40 5 -43 17 -3
9 -5 6 -6 -9 0 -15 -14 -36 -33 -53 -25 -21 -27 -25 -9 -17 13 7 37 14 54 17
16 2 39 8 51 13 17 7 15 9 -16 9 -20 1 -39 -4 -41 -9 -3 -6 -4 -5 -3 2 4 19
72 21 108 4 39 -20 38 -20 38 8 0 48 -66 117 -84 87z"/>
<path d="M3536 2521 c-3 -5 2 -8 12 -7 11 1 17 -6 16 -21 0 -12 3 -20 8 -17
14 9 9 42 -8 48 -20 8 -22 8 -28 -3z"/>
<path d="M1283 2493 c-25 -25 -22 -28 10 -12 21 9 20 9 -2 -11 -20 -18 -32
-19 -86 -14 -50 5 -70 3 -108 -14 -56 -25 -60 -35 -11 -26 28 5 35 4 29 -6 -5
-9 -2 -10 14 -6 11 3 31 9 43 12 20 6 21 5 9 -10 -14 -17 -12 -19 13 -10 9 3
16 13 16 21 0 12 -7 14 -27 10 -16 -3 -41 -3 -58 0 -26 5 -27 7 -10 14 27 11
89 11 117 0 13 -4 40 -11 62 -15 35 -7 38 -6 32 11 -6 14 -5 16 5 6 26 -26 31
-12 7 20 -14 17 -27 37 -29 42 -2 6 -14 0 -26 -12z"/>
<path d="M2880 2481 c-28 -28 -30 -32 -10 -21 14 7 31 20 38 29 12 14 13 11 8
-18 -3 -18 -6 -40 -6 -49 0 -13 -2 -13 -18 1 -10 10 -29 17 -41 17 -12 0 -30
4 -40 10 -11 6 -29 6 -47 0 -29 -10 -29 -10 5 -5 31 5 33 3 29 -20 -6 -30 15
-34 43 -9 23 21 49 11 49 -17 0 -40 27 -2 34 47 9 67 -2 75 -44 35z"/>
<path d="M2960 2493 c-14 -14 -19 -24 -11 -22 13 5 49 49 40 49 -2 0 -15 -12
-29 -27z"/>
<path d="M3022 2489 c-12 -15 -38 -33 -58 -39 -19 -7 -33 -14 -31 -17 8 -8 71
24 91 46 16 17 22 19 35 8 14 -11 15 -10 1 8 -8 11 -14 21 -15 21 0 1 -10 -11
-23 -27z"/>
<path d="M3830 2507 c0 -10 7 -20 15 -23 10 -4 14 -18 13 -38 -2 -39 -14 -56
-42 -57 -16 -1 -17 -2 -4 -6 9 -2 28 3 41 12 16 10 26 12 29 5 2 -6 42 -13 91
-16 83 -4 89 -3 112 20 30 30 32 66 7 89 -24 22 -33 22 -25 0 5 -13 2 -15 -15
-11 -22 6 -30 -6 -12 -17 15 -9 12 -31 -6 -50 -12 -11 -25 -14 -48 -9 -38 8
-42 12 -29 25 7 7 15 5 27 -7 24 -23 44 -4 29 28 -8 19 -17 22 -75 23 -58 0
-69 4 -87 25 -17 21 -20 22 -21 7z m270 -49 c0 -27 -37 -68 -62 -68 -17 0 -16
2 3 21 12 12 19 29 16 40 -3 12 0 19 9 19 8 0 14 5 14 11 0 5 5 7 10 4 6 -3
10 -16 10 -27z m-107 0 c-5 -10 -82 -9 -105 0 -10 4 11 7 46 7 35 0 62 -3 59
-7z m-103 -24 c0 -8 -4 -12 -10 -9 -5 3 -10 10 -10 16 0 5 5 9 10 9 6 0 10 -7
10 -16z m120 0 c0 -8 -4 -12 -10 -9 -5 3 -10 10 -10 16 0 5 5 9 10 9 6 0 10
-7 10 -16z m-80 -9 c0 -9 -6 -12 -15 -9 -8 4 -12 10 -9 15 8 14 24 10 24 -6z"/>
<path d="M1930 2502 c0 -6 -12 -18 -27 -26 -16 -8 -23 -15 -17 -16 18 0 60 37
52 46 -5 4 -8 2 -8 -4z"/>
<path d="M2610 2506 c0 -2 7 -7 16 -10 8 -3 12 -2 9 4 -6 10 -25 14 -25 6z"/>
<path d="M1590 2490 c12 -7 11 -12 -5 -32 l-20 -23 23 19 c12 11 22 14 22 9 0
-6 -7 -16 -15 -23 -20 -17 -10 -30 25 -30 41 0 48 19 17 46 -15 13 -27 28 -27
34 0 5 -8 10 -17 10 -15 0 -16 -2 -3 -10z"/>
<path d="M1740 2490 c12 -7 12 -12 2 -22 -6 -6 -12 -19 -12 -27 0 -9 7 -3 15
13 15 29 12 46 -8 46 -7 0 -6 -4 3 -10z"/>
<path d="M2036 2472 c3 -19 1 -39 -6 -47 -7 -8 -10 -20 -7 -27 3 -8 9 -2 16
15 6 15 18 27 28 27 17 1 17 1 0 11 -10 6 -23 20 -28 32 -7 17 -8 15 -3 -11z"/>
<path d="M2080 2491 c0 -6 15 -19 34 -27 25 -13 38 -14 52 -6 16 10 14 11 -18
12 -20 0 -44 7 -52 16 -9 8 -16 11 -16 5z"/>
<path d="M2502 2480 c0 -14 2 -19 5 -12 2 6 2 18 0 25 -3 6 -5 1 -5 -13z"/>
<path d="M2989 2483 c-13 -16 -12 -17 4 -4 16 13 21 21 13 21 -2 0 -10 -8 -17
-17z"/>
<path d="M1396 2478 c4 -6 -1 -17 -10 -24 -22 -15 -17 -48 7 -50 13 -2 14 -1
2 3 -20 6 -16 35 5 40 12 4 12 3 1 -5 -9 -7 -10 -12 -2 -16 6 -4 11 -2 11 3 0
18 18 12 22 -7 3 -15 7 -16 38 -4 34 12 34 13 4 8 -21 -3 -31 -1 -31 9 0 9 11
12 36 9 l36 -4 -39 10 c-22 6 -47 17 -56 25 -20 18 -34 20 -24 3z m29 -18 c3
-5 1 -10 -4 -10 -6 0 -11 5 -11 10 0 6 2 10 4 10 3 0 8 -4 11 -10z"/>
<path d="M1517 2470 c3 -11 12 -20 19 -20 11 0 10 5 -3 20 -10 11 -18 20 -19
20 -1 0 0 -9 3 -20z"/>
<path d="M3083 2473 c-18 -9 -35 -23 -38 -31 -4 -12 -3 -13 10 -2 8 7 24 10
36 7 15 -4 19 -2 15 9 -4 9 3 18 17 24 12 5 15 9 7 9 -8 0 -29 -7 -47 -16z"/>
<path d="M1794 2468 c-4 -7 -3 -10 1 -5 5 4 17 -1 28 -10 19 -18 19 -17 6 5
-16 25 -25 28 -35 10z"/>
<path d="M1940 2472 c0 -6 -14 -15 -31 -19 -30 -8 -30 -9 -12 -28 23 -25 75
-23 66 3 -6 15 -5 15 10 3 10 -8 17 -9 17 -3 0 6 8 13 18 16 12 3 11 4 -4 3
-12 -1 -31 7 -43 17 -12 11 -21 14 -21 8z"/>
<path d="M1983 2473 c9 -2 23 -2 30 0 6 3 -1 5 -18 5 -16 0 -22 -2 -12 -5z"/>
<path d="M3486 2464 c-28 -15 -50 -15 -91 1 -16 7 -15 4 5 -12 24 -21 25 -21
6 -42 -21 -23 -64 -27 -99 -10 -21 10 -21 10 -3 -5 23 -18 82 -21 92 -5 3 6
16 8 29 5 27 -7 125 21 125 35 0 15 -20 49 -28 49 -4 -1 -20 -8 -36 -16z m40
-9 c-3 -8 -1 -15 5 -15 6 0 7 -5 3 -12 -6 -9 -9 -9 -12 0 -2 7 -20 10 -50 7
-46 -5 -46 -5 -12 6 19 6 39 15 45 20 14 14 28 11 21 -6z m-76 -45 c0 -5 -4
-10 -9 -10 -6 0 -13 5 -16 10 -3 6 1 10 9 10 9 0 16 -4 16 -10z m47 4 c-3 -3
-12 -4 -19 -1 -8 3 -5 6 6 6 11 1 17 -2 13 -5z"/>
<path d="M1782 2438 c-9 -71 -17 -66 78 -48 42 8 41 9 -18 5 -45 -2 -62 0 -59
8 3 7 10 11 16 9 9 -2 9 3 1 18 -12 23 -16 25 -18 8z"/>
<path d="M2113 2433 c15 -2 37 -2 50 0 12 2 0 4 -28 4 -27 0 -38 -2 -22 -4z"/>
<path d="M2380 2415 c46 -18 50 -18 44 0 -4 10 -19 15 -43 14 l-36 -1 35 -13z"/>
<path d="M3635 2415 c33 -7 73 -18 88 -24 16 -6 38 -10 50 -10 20 1 20 2 2 6
-11 3 -49 13 -84 24 -35 10 -75 19 -90 18 -14 0 1 -7 34 -14z"/>
<path d="M1228 2413 c7 -3 16 -2 19 1 4 3 -2 6 -13 5 -11 0 -14 -3 -6 -6z"/>
<path d="M2065 2410 c19 -8 93 -14 84 -6 -2 2 -26 6 -54 9 -32 4 -43 3 -30 -3z"/>
<path d="M3209 2403 c-13 -16 -12 -17 4 -4 9 7 17 15 17 17 0 8 -8 3 -21 -13z"/>
<path d="M970 2250 c0 -7 535 -10 1585 -10 1050 0 1585 3 1585 10 0 7 -535 10
-1585 10 -1050 0 -1585 -3 -1585 -10z"/>
<path d="M2956 2088 c-34 -34 -54 -104 -40 -144 19 -59 30 -76 55 -89 36 -19
63 -19 99 0 18 9 31 11 35 5 16 -26 25 -4 25 60 l0 70 -55 0 c-42 0 -55 -3
-55 -15 0 -11 11 -15 41 -15 40 0 41 -1 35 -27 -15 -61 -79 -81 -121 -38 -20
19 -25 34 -25 75 0 28 7 64 15 80 26 49 104 50 120 0 8 -25 35 -26 35 -1 0 30
-56 71 -97 71 -26 0 -43 -8 -67 -32z"/>
<path d="M3466 2099 c-53 -42 -71 -124 -42 -194 26 -61 117 -86 168 -45 37 29
51 71 46 140 -5 76 -34 110 -99 117 -35 4 -50 0 -73 -18z m116 -39 c28 -29 30
-35 26 -86 -7 -88 -66 -130 -125 -89 -29 20 -45 80 -34 126 11 47 18 58 45 69
37 15 57 11 88 -20z"/>
<path d="M990 2095 c0 -11 11 -15 40 -15 l40 0 0 -115 c0 -108 1 -115 20 -115
19 0 20 7 20 115 l0 115 40 0 c29 0 40 4 40 15 0 12 -18 15 -100 15 -82 0
-100 -3 -100 -15z"/>
<path d="M1220 1980 c0 -109 2 -130 15 -130 12 0 15 13 15 60 l0 60 60 0 60 0
0 -60 c0 -53 2 -60 20 -60 19 0 20 7 20 130 0 123 -1 130 -20 130 -18 0 -20
-7 -20 -55 l0 -55 -60 0 -60 0 0 55 c0 42 -3 55 -15 55 -13 0 -15 -21 -15
-130z"/>
<path d="M1460 1980 l0 -130 90 0 c73 0 90 3 90 15 0 12 -15 15 -75 15 l-75 0
0 45 0 45 65 0 c51 0 65 3 65 15 0 12 -14 15 -65 15 l-65 0 0 40 0 40 70 0
c56 0 70 3 70 15 0 12 -16 15 -85 15 l-85 0 0 -130z"/>
<path d="M1770 1980 c0 -123 1 -130 20 -130 18 0 20 7 20 60 l0 60 60 0 60 0
0 -60 c0 -47 3 -60 15 -60 13 0 15 21 15 130 0 109 -2 130 -15 130 -12 0 -15
-13 -15 -55 l0 -55 -60 0 -60 0 0 55 c0 48 -2 55 -20 55 -19 0 -20 -7 -20
-130z"/>
<path d="M2020 1980 c0 -109 2 -130 15 -130 13 0 15 21 15 130 0 109 -2 130
-15 130 -13 0 -15 -21 -15 -130z"/>
<path d="M2110 1980 c0 -108 3 -130 15 -130 11 0 15 20 17 100 l3 101 55 -100
c44 -81 59 -101 78 -101 22 0 22 2 22 130 0 123 -1 130 -20 130 -18 0 -20 -8
-22 -97 l-3 -98 -53 98 c-39 70 -59 97 -73 97 -18 0 -19 -9 -19 -130z"/>
<path d="M2350 1980 l0 -130 61 0 c33 0 69 5 80 10 35 19 51 67 47 138 -4 55
-8 68 -32 88 -22 20 -38 24 -92 24 l-64 0 0 -130z m139 74 c33 -42 26 -141
-13 -166 -6 -4 -30 -8 -53 -8 l-43 0 0 100 0 100 44 0 c36 0 48 -5 65 -26z"/>
<path d="M2592 1999 c3 -107 4 -112 31 -135 18 -15 41 -24 62 -24 21 0 44 9
62 24 27 23 28 28 31 135 3 96 2 111 -12 111 -13 0 -16 -14 -16 -90 0 -101
-12 -138 -48 -147 -57 -14 -82 32 -82 150 0 73 -3 87 -16 87 -14 0 -15 -15
-12 -111z"/>
<path d="M3190 1980 c0 -109 2 -130 15 -130 12 0 15 13 15 55 l0 55 50 0 c45
0 52 -3 60 -26 6 -14 10 -39 10 -55 0 -21 5 -29 18 -29 16 0 17 6 12 57 -4 31
-12 59 -18 61 -9 3 -8 10 3 25 21 29 19 80 -3 100 -14 13 -38 17 -90 17 l-72
0 0 -130z m138 88 c7 -7 12 -21 12 -33 0 -33 -20 -45 -72 -45 l-48 0 0 45 0
45 48 0 c26 0 53 -5 60 -12z"/>
<path d="M3680 2038 c1 -101 14 -159 40 -180 29 -24 91 -23 121 1 22 18 24 27
27 135 3 101 2 116 -12 116 -14 0 -16 -15 -16 -100 0 -87 -3 -103 -20 -120
-11 -11 -29 -20 -40 -20 -11 0 -29 9 -40 20 -17 17 -20 33 -20 120 0 93 -1
100 -20 100 -18 0 -20 -7 -20 -72z"/>
<path d="M3930 1980 c0 -109 2 -130 15 -130 12 0 15 13 15 55 l0 55 53 0 c66
0 87 19 87 77 0 58 -21 73 -103 73 l-67 0 0 -130z m128 88 c7 -7 12 -21 12
-33 0 -32 -20 -45 -67 -45 l-43 0 0 45 0 45 43 0 c24 0 48 -5 55 -12z"/>
</g>
</svg>
